<mxfile host="app.diagrams.net" agent="Mozilla/5.0 (Windows NT 10.0; Win64; x64; rv:132.0) Gecko/20100101 Firefox/132.0" version="24.8.3">
  <diagram name="Page-1" id="mMMD_FJ7rnP6NfEetIRi">
    <mxGraphModel dx="724" dy="452" grid="1" gridSize="10" guides="1" tooltips="1" connect="1" arrows="1" fold="1" page="1" pageScale="1" pageWidth="850" pageHeight="1100" math="0" shadow="0">
      <root>
        <mxCell id="0" />
        <mxCell id="1" parent="0" />
        <mxCell id="9tSZw5Fly1JSU1oHzp6G-4" value="" style="rounded=0;whiteSpace=wrap;html=1;" vertex="1" parent="1">
          <mxGeometry x="200" y="80" width="120" height="60" as="geometry" />
        </mxCell>
        <mxCell id="9tSZw5Fly1JSU1oHzp6G-5" value="" style="rounded=1;whiteSpace=wrap;html=1;" vertex="1" parent="1">
          <mxGeometry x="215" y="90" width="65" height="40" as="geometry" />
        </mxCell>
        <mxCell id="9tSZw5Fly1JSU1oHzp6G-7" value="Network Analyzer" style="text;html=1;align=center;verticalAlign=middle;whiteSpace=wrap;rounded=0;" vertex="1" parent="1">
          <mxGeometry x="200" y="50" width="120" height="30" as="geometry" />
        </mxCell>
        <mxCell id="9tSZw5Fly1JSU1oHzp6G-9" value="" style="verticalLabelPosition=bottom;shadow=0;dashed=0;align=center;html=1;verticalAlign=top;shape=mxgraph.electrical.radio.aerial_-_antenna_2;" vertex="1" parent="1">
          <mxGeometry x="390" y="80" width="50" height="60" as="geometry" />
        </mxCell>
        <mxCell id="9tSZw5Fly1JSU1oHzp6G-11" value="" style="endArrow=none;html=1;rounded=0;entryX=0.5;entryY=1;entryDx=0;entryDy=0;entryPerimeter=0;exitX=0.25;exitY=1;exitDx=0;exitDy=0;" edge="1" parent="1" source="9tSZw5Fly1JSU1oHzp6G-4" target="9tSZw5Fly1JSU1oHzp6G-9">
          <mxGeometry width="50" height="50" relative="1" as="geometry">
            <mxPoint x="310" y="200" as="sourcePoint" />
            <mxPoint x="360" y="150" as="targetPoint" />
            <Array as="points">
              <mxPoint x="230" y="160" />
              <mxPoint x="415" y="160" />
            </Array>
          </mxGeometry>
        </mxCell>
        <mxCell id="9tSZw5Fly1JSU1oHzp6G-12" value="Test Antenna" style="text;html=1;align=center;verticalAlign=middle;whiteSpace=wrap;rounded=0;" vertex="1" parent="1">
          <mxGeometry x="377.5" y="50" width="75" height="30" as="geometry" />
        </mxCell>
      </root>
    </mxGraphModel>
  </diagram>
</mxfile>
